<svg width="650" height="585" viewBox="0 0 650 585" fill="none" xmlns="http://www.w3.org/2000/svg">
<path d="M295.038 411.419C294.707 411.42 294.377 411.428 294.041 411.436C284.954 411.652 273.815 414.304 259.943 420.471V485.685C276.227 477.962 288.539 475.752 298.588 476.817C307.565 477.769 314.581 481.282 320.979 485.174V420.069C314.758 415.314 307.529 412.019 297.943 411.494C296.975 411.441 296.006 411.416 295.037 411.419H295.038ZM351.836 411.419C350.844 411.415 349.874 411.443 348.93 411.494C339.345 412.019 332.116 415.314 325.894 420.069V485.174C332.292 481.282 339.308 477.769 348.285 476.817C358.334 475.752 370.646 477.962 386.93 485.685V420.471C373.058 414.304 361.92 411.652 352.833 411.436C352.496 411.428 352.167 411.421 351.836 411.42V411.419ZM353.369 481.565C353.09 481.564 352.813 481.569 352.539 481.574C351.251 481.594 350.012 481.673 348.813 481.8C339.721 482.763 332.842 486.616 325.895 491.028V491.103C324.139 490.57 322.406 490.468 320.694 490.843C313.844 486.508 307.028 482.75 298.061 481.8C296.562 481.641 294.995 481.563 293.354 481.574C284.769 481.631 274.106 484.194 259.944 491.203V502.6C276.227 494.876 288.538 492.667 298.588 493.732C303.557 494.259 307.923 495.567 311.919 497.291C310.664 498.916 309.424 500.846 308.201 503.102H339.593C338.004 500.9 336.432 498.972 334.87 497.325C338.889 495.583 343.282 494.262 348.285 493.732C358.334 492.668 370.645 494.877 386.93 502.6V491.204C372.685 484.154 361.979 481.594 353.368 481.566L353.369 481.565Z" fill="#2D3F70"/>
<path d="M164.334 379.219C170.927 405.405 165.045 429.458 165.045 429.458C165.045 429.458 148.473 411.058 141.881 384.873C135.288 358.688 141.17 334.634 141.17 334.634C141.17 334.634 157.742 353.034 164.334 379.219Z" fill="#224499"/>
<path d="M105.245 389.533C127.609 400.264 140.73 419.401 140.73 419.401C140.73 419.401 117.592 421.14 95.2279 410.409C72.8639 399.678 59.7427 380.541 59.7427 380.541C59.7427 380.541 82.8807 378.803 105.245 389.533Z" fill="#224499"/>
<path d="M139.016 323.565C136.776 350.474 123.423 371.328 123.423 371.328C123.423 371.328 113.701 348.554 115.941 321.644C118.181 294.735 131.534 273.881 131.534 273.881C131.534 273.881 141.256 296.656 139.016 323.565Z" fill="#224499"/>
<path d="M91.0423 341.831C110.687 356.976 119.543 378.423 119.543 378.423C119.543 378.423 96.5494 375.314 76.9047 360.168C57.2601 345.023 48.4038 323.576 48.4038 323.576C48.4038 323.576 71.3977 326.685 91.0423 341.831Z" fill="#224499"/>
<path d="M129.867 265.462C119.747 290.496 100.81 306.451 100.81 306.451C100.81 306.451 98.2806 281.818 108.401 256.784C118.521 231.749 137.458 215.794 137.458 215.794C137.458 215.794 139.988 240.427 129.867 265.462Z" fill="#224499"/>
<path d="M71.7384 281.746C88.0606 300.424 92.5745 323.184 92.5745 323.184C92.5745 323.184 70.6251 315.66 54.3029 296.982C37.9807 278.303 33.4668 255.543 33.4668 255.543C33.4668 255.543 55.4162 263.067 71.7384 281.746Z" fill="#224499"/>
<path d="M137.76 204.605C120.124 225.053 97.0612 234.068 97.0612 234.068C97.0612 234.068 102.59 209.931 120.226 189.483C137.861 169.035 160.924 160.02 160.924 160.02C160.924 160.02 155.395 184.157 137.76 204.605Z" fill="#224499"/>
<path d="M83.4282 234.628C91.2015 258.184 86.5088 280.908 86.5088 280.908C86.5088 280.908 69.2132 265.44 61.44 241.884C53.6667 218.328 58.3594 195.605 58.3594 195.605C58.3594 195.605 75.655 211.072 83.4282 234.628Z" fill="#224499"/>
<path d="M177.938 142.459C154.826 156.422 130.103 157.832 130.103 157.832C130.103 157.832 142.853 136.604 165.965 122.641C189.077 108.678 213.799 107.268 213.799 107.268C213.799 107.268 201.05 128.497 177.938 142.459Z" fill="#224499"/>
<path d="M206.973 87.8065C187.421 106.43 163.586 113.145 163.586 113.145C163.586 113.145 171.451 89.6642 191.003 71.0406C210.555 52.4169 234.39 45.7024 234.39 45.7024C234.39 45.7024 226.525 69.1828 206.973 87.8065Z" fill="#224499"/>
<path d="M169.089 84.8713C158.328 109.637 138.986 125.099 138.986 125.099C138.986 125.099 137.091 100.409 147.853 75.6434C158.614 50.8782 177.956 35.4159 177.956 35.4159C177.956 35.4159 179.85 60.1061 169.089 84.8713Z" fill="#224499"/>
<path d="M131.256 126.711C126.447 153.281 111.156 172.759 111.156 172.759C111.156 172.759 103.662 149.157 108.471 122.587C113.28 96.0163 128.571 76.5384 128.571 76.5384C128.571 76.5384 136.065 100.14 131.256 126.711Z" fill="#224499"/>
<path d="M99.7903 170.596C102.696 195.231 93.5548 216.557 93.5548 216.557C93.5548 216.557 79.7014 197.944 76.7953 173.309C73.8891 148.675 83.0307 127.348 83.0307 127.348C83.0307 127.348 96.8842 145.962 99.7903 170.596Z" fill="#224499"/>
<path d="M208.934 424.245C225.046 444.814 228.993 468.628 228.993 468.628C228.993 468.628 206.818 459.093 190.706 438.524C174.594 417.954 170.646 394.141 170.646 394.141C170.646 394.141 192.822 403.676 208.934 424.245Z" fill="#224499"/>
<path d="M177.707 466.534C202.63 468.308 222.012 481.294 222.012 481.294C222.012 481.294 200.986 491.404 176.063 489.63C151.14 487.856 131.759 474.87 131.759 474.87C131.759 474.87 152.784 464.76 177.707 466.534Z" fill="#224499"/>
<path d="M141.574 433.204C165.982 437.625 183.706 452.6 183.706 452.6C183.706 452.6 161.856 460.408 137.448 455.988C113.04 451.567 95.3163 436.591 95.3163 436.591C95.3163 436.591 117.166 428.783 141.574 433.204Z" fill="#224499"/>
<path d="M485.416 382.139C478.823 408.324 484.705 432.378 484.705 432.378C484.705 432.378 501.277 413.978 507.869 387.792C514.462 361.607 508.58 337.553 508.58 337.553C508.58 337.553 492.008 355.954 485.416 382.139Z" fill="#224499"/>
<path d="M544.505 392.453C522.141 403.184 509.02 422.321 509.02 422.321C509.02 422.321 532.158 424.06 554.522 413.329C576.886 402.598 590.007 383.461 590.007 383.461C590.007 383.461 566.869 381.722 544.505 392.453Z" fill="#224499"/>
<path d="M510.733 326.485C512.973 353.394 526.326 374.248 526.326 374.248C526.326 374.248 536.048 351.473 533.808 324.564C531.568 297.655 518.215 276.801 518.215 276.801C518.215 276.801 508.493 299.576 510.733 326.485Z" fill="#224499"/>
<path d="M558.707 344.751C539.063 359.896 530.206 381.343 530.206 381.343C530.206 381.343 553.2 378.233 572.845 363.088C592.489 347.943 601.346 326.496 601.346 326.496C601.346 326.496 578.352 329.605 558.707 344.751Z" fill="#224499"/>
<path d="M519.882 268.38C530.002 293.414 548.939 309.369 548.939 309.369C548.939 309.369 551.468 284.736 541.348 259.702C531.228 234.668 512.291 218.712 512.291 218.712C512.291 218.712 509.761 243.346 519.882 268.38Z" fill="#224499"/>
<path d="M578.011 284.665C561.689 303.344 557.175 326.104 557.175 326.104C557.175 326.104 579.124 318.58 595.447 299.901C611.769 281.223 616.283 258.463 616.283 258.463C616.283 258.463 594.333 265.987 578.011 284.665Z" fill="#224499"/>
<path d="M511.99 207.525C529.626 227.973 552.689 236.988 552.689 236.988C552.689 236.988 547.16 212.85 529.524 192.403C511.889 171.955 488.826 162.939 488.826 162.939C488.826 162.939 494.355 187.077 511.99 207.525Z" fill="#224499"/>
<path d="M566.322 237.548C558.549 261.104 563.241 283.827 563.241 283.827C563.241 283.827 580.537 268.36 588.31 244.804C596.083 221.248 591.391 198.524 591.391 198.524C591.391 198.524 574.095 213.992 566.322 237.548Z" fill="#224499"/>
<path d="M471.811 145.379C494.923 159.342 519.646 160.752 519.646 160.752C519.646 160.752 506.896 139.523 483.784 125.561C460.672 111.598 435.95 110.188 435.95 110.188C435.95 110.188 448.699 131.416 471.811 145.379Z" fill="#224499"/>
<path d="M442.777 90.7262C462.329 109.35 486.164 116.064 486.164 116.064C486.164 116.064 478.299 92.5839 458.747 73.9603C439.195 55.3366 415.36 48.6221 415.36 48.6221C415.36 48.6221 423.225 72.1025 442.777 90.7262Z" fill="#224499"/>
<path d="M480.661 87.791C491.422 112.556 510.764 128.018 510.764 128.018C510.764 128.018 512.659 103.328 501.897 78.5631C491.136 53.7979 471.794 38.3356 471.794 38.3356C471.794 38.3356 469.9 63.0257 480.661 87.791Z" fill="#224499"/>
<path d="M518.494 129.63C523.303 156.201 538.594 175.679 538.594 175.679C538.594 175.679 546.087 152.077 541.278 125.507C536.469 98.936 521.179 79.4581 521.179 79.4581C521.179 79.4581 513.685 103.06 518.494 129.63Z" fill="#224499"/>
<path d="M549.959 173.516C547.053 198.15 556.194 219.477 556.194 219.477C556.194 219.477 570.048 200.863 572.954 176.229C575.86 151.595 566.718 130.268 566.718 130.268C566.718 130.268 552.865 148.882 549.959 173.516Z" fill="#224499"/>
<path d="M440.815 427.165C424.703 447.734 420.756 471.548 420.756 471.548C420.756 471.548 442.931 462.012 459.043 441.443C475.155 420.874 479.103 397.061 479.103 397.061C479.103 397.061 456.927 406.596 440.815 427.165Z" fill="#224499"/>
<path d="M472.043 469.453C447.12 471.227 427.738 484.214 427.738 484.214C427.738 484.214 448.764 494.323 473.687 492.549C498.61 490.775 517.991 477.789 517.991 477.789C517.991 477.789 496.966 467.679 472.043 469.453Z" fill="#224499"/>
<path d="M508.175 436.123C483.767 440.544 466.044 455.52 466.044 455.52C466.044 455.52 487.894 463.328 512.302 458.907C536.71 454.486 554.433 439.511 554.433 439.511C554.433 439.511 532.583 431.703 508.175 436.123Z" fill="#224499"/>
<path d="M79.7861 513.018H567.262L527.369 548.532L567.262 584.047H79.7861L117.247 548.532L79.7861 513.018Z" fill="#2D3F70"/>
<path d="M187.105 537.955C187.105 537.257 187.176 536.602 187.319 535.991C187.465 535.376 187.671 534.813 187.938 534.301C188.205 533.786 188.531 533.325 188.916 532.918C189.3 532.512 189.732 532.169 190.21 531.889C190.688 531.607 191.209 531.391 191.774 531.242C192.342 531.093 192.942 531.019 193.576 531.019C194.209 531.019 194.808 531.093 195.373 531.242C195.94 531.391 196.463 531.607 196.941 531.889C197.422 532.169 197.854 532.512 198.236 532.918C198.62 533.325 198.946 533.786 199.213 534.301C199.483 534.813 199.69 535.376 199.832 535.991C199.978 536.605 200.051 537.26 200.051 537.955C200.051 538.65 199.978 539.305 199.832 539.92C199.69 540.534 199.483 541.099 199.213 541.614C198.946 542.126 198.62 542.586 198.236 542.992C197.854 543.399 197.422 543.743 196.941 544.026C196.463 544.305 195.94 544.519 195.373 544.668C194.808 544.817 194.209 544.892 193.576 544.892C192.942 544.892 192.342 544.817 191.774 544.668C191.209 544.519 190.688 544.305 190.21 544.026C189.732 543.743 189.3 543.399 188.916 542.992C188.531 542.586 188.205 542.126 187.938 541.614C187.671 541.099 187.465 540.534 187.319 539.92C187.176 539.305 187.105 538.65 187.105 537.955ZM190.066 537.955C190.066 538.666 190.143 539.296 190.298 539.845C190.457 540.395 190.685 540.857 190.983 541.233C191.281 541.605 191.647 541.887 192.081 542.08C192.519 542.272 193.017 542.368 193.576 542.368C194.134 542.368 194.631 542.272 195.065 542.08C195.503 541.887 195.871 541.605 196.169 541.233C196.47 540.857 196.698 540.395 196.853 539.845C197.011 539.296 197.09 538.666 197.09 537.955C197.09 537.245 197.011 536.615 196.853 536.065C196.698 535.516 196.47 535.055 196.169 534.683C195.871 534.307 195.503 534.023 195.065 533.831C194.631 533.638 194.134 533.542 193.576 533.542C193.017 533.542 192.519 533.638 192.081 533.831C191.647 534.023 191.281 534.307 190.983 534.683C190.685 535.055 190.457 535.516 190.298 536.065C190.143 536.615 190.066 537.245 190.066 537.955ZM203.934 544.612H201.146V534.347H203.934V537.913C204.027 537.364 204.164 536.869 204.344 536.428C204.524 535.988 204.753 535.614 205.033 535.306C205.312 534.999 205.644 534.763 206.029 534.599C206.417 534.431 206.862 534.347 207.365 534.347H207.975V536.968H206.899C206.328 536.968 205.852 537.027 205.47 537.145C205.092 537.263 204.788 537.445 204.558 537.69C204.331 537.932 204.17 538.239 204.074 538.612C203.981 538.981 203.934 539.419 203.934 539.924V544.612ZM218.888 534.347V543.239C218.888 544.03 218.766 544.744 218.52 545.38C218.278 546.02 217.931 546.564 217.478 547.014C217.028 547.464 216.481 547.81 215.839 548.053C215.197 548.298 214.477 548.42 213.679 548.42C213.182 548.42 212.714 548.374 212.273 548.281C211.832 548.191 211.424 548.059 211.049 547.885C210.676 547.714 210.341 547.505 210.043 547.257C209.745 547.011 209.492 546.734 209.284 546.423C209.076 546.116 208.917 545.779 208.805 545.413C208.693 545.05 208.637 544.665 208.637 544.259H211.416C211.416 544.553 211.471 544.823 211.579 545.069C211.691 545.314 211.845 545.523 212.04 545.697C212.236 545.874 212.469 546.01 212.739 546.107C213.012 546.203 213.311 546.251 213.637 546.251C214.019 546.251 214.362 546.181 214.666 546.041C214.97 545.905 215.228 545.706 215.439 545.446C215.653 545.188 215.816 544.875 215.927 544.505C216.042 544.136 216.1 543.718 216.1 543.253V540.963C215.985 541.468 215.822 541.918 215.611 542.313C215.403 542.707 215.152 543.04 214.857 543.313C214.562 543.583 214.225 543.79 213.847 543.933C213.471 544.075 213.06 544.147 212.613 544.147C212.212 544.147 211.832 544.091 211.472 543.979C211.112 543.867 210.78 543.706 210.476 543.495C210.172 543.284 209.897 543.028 209.652 542.727C209.407 542.426 209.199 542.088 209.028 541.712C208.858 541.337 208.726 540.927 208.633 540.483C208.543 540.036 208.498 539.564 208.498 539.068C208.498 538.568 208.543 538.1 208.633 537.662C208.726 537.221 208.858 536.816 209.028 536.447C209.199 536.074 209.407 535.742 209.652 535.451C209.897 535.156 210.172 534.906 210.476 534.701C210.78 534.496 211.112 534.34 211.472 534.231C211.832 534.122 212.212 534.068 212.613 534.068C213.06 534.068 213.471 534.136 213.847 534.273C214.225 534.409 214.562 534.61 214.857 534.873C215.152 535.137 215.403 535.463 215.611 535.851C215.822 536.239 215.985 536.683 216.1 537.182V534.347H218.888ZM216.1 539.068C216.1 538.214 215.889 537.567 215.467 537.127C215.044 536.686 214.439 536.466 213.651 536.466C212.888 536.466 212.306 536.68 211.905 537.108C211.505 537.536 211.305 538.19 211.305 539.068C211.305 539.949 211.503 540.617 211.901 541.07C212.298 541.52 212.881 541.745 213.651 541.745C214.042 541.745 214.39 541.686 214.694 541.568C214.998 541.447 215.254 541.273 215.462 541.046C215.67 540.817 215.828 540.536 215.937 540.204C216.045 539.872 216.1 539.493 216.1 539.068ZM220.099 538.109C220.099 537.488 220.212 536.928 220.439 536.428C220.669 535.929 220.996 535.505 221.421 535.157C221.85 534.807 222.368 534.538 222.976 534.352C223.584 534.163 224.27 534.068 225.034 534.068C225.816 534.068 226.516 534.169 227.133 534.371C227.751 534.569 228.274 534.859 228.702 535.241C229.13 535.623 229.456 536.09 229.68 536.642C229.906 537.195 230.02 537.822 230.02 538.523V544.612H227.231V541.987C227.116 542.437 226.939 542.842 226.7 543.202C226.464 543.559 226.177 543.863 225.839 544.114C225.504 544.366 225.121 544.558 224.689 544.691C224.261 544.825 223.795 544.892 223.293 544.892C222.768 544.892 222.29 544.819 221.859 544.673C221.431 544.53 221.063 544.327 220.756 544.063C220.451 543.796 220.216 543.476 220.048 543.104C219.88 542.732 219.797 542.317 219.797 541.861C219.797 541.374 219.893 540.939 220.085 540.558C220.281 540.173 220.56 539.848 220.923 539.585C221.289 539.318 221.736 539.114 222.264 538.975C222.791 538.832 223.39 538.761 224.061 538.761H227.231V538.523C227.231 538.169 227.18 537.853 227.077 537.573C226.975 537.294 226.828 537.058 226.635 536.866C226.443 536.67 226.205 536.521 225.923 536.419C225.644 536.317 225.325 536.265 224.969 536.265C224.609 536.265 224.297 536.309 224.033 536.396C223.772 536.48 223.555 536.602 223.381 536.763C223.21 536.922 223.083 537.114 222.999 537.341C222.919 537.567 222.878 537.823 222.878 538.109H220.099ZM224.349 540.455C223.769 540.455 223.33 540.553 223.032 540.748C222.734 540.941 222.585 541.226 222.585 541.605C222.585 541.993 222.74 542.292 223.051 542.503C223.364 542.711 223.811 542.815 224.391 542.815C224.801 542.815 225.178 542.764 225.523 542.662C225.87 542.556 226.17 542.412 226.421 542.229C226.676 542.046 226.874 541.828 227.017 541.577C227.16 541.326 227.231 541.053 227.231 540.758V540.455H224.349ZM233.957 544.612H231.169V534.347H233.957V537.434C234.066 536.891 234.226 536.41 234.437 535.991C234.648 535.572 234.905 535.221 235.209 534.939C235.514 534.653 235.863 534.437 236.257 534.292C236.654 534.143 237.09 534.068 237.565 534.068C238.117 534.068 238.605 534.167 239.027 534.366C239.452 534.565 239.809 534.858 240.097 535.246C240.386 535.631 240.603 536.109 240.749 536.68C240.898 537.251 240.973 537.907 240.973 538.649V544.612H238.184V539.114C238.184 537.367 237.52 536.493 236.192 536.493C235.835 536.493 235.518 536.554 235.242 536.675C234.966 536.793 234.731 536.968 234.539 537.201C234.35 537.431 234.205 537.716 234.106 538.058C234.007 538.396 233.957 538.785 233.957 539.226V544.612ZM244.932 533.272H242.088V530.833H244.932V533.272ZM244.904 544.612H242.116V534.347H244.904V544.612ZM250.553 534.068C251.308 534.068 251.979 534.15 252.569 534.315C253.162 534.479 253.662 534.717 254.068 535.027C254.475 535.334 254.785 535.708 254.999 536.149C255.213 536.59 255.32 537.086 255.32 537.639H252.569C252.569 537.4 252.527 537.187 252.443 537.001C252.36 536.812 252.234 536.65 252.066 536.517C251.902 536.383 251.697 536.282 251.452 536.214C251.21 536.143 250.929 536.107 250.609 536.107C250.33 536.107 250.074 536.133 249.841 536.186C249.608 536.239 249.41 536.313 249.245 536.41C249.081 536.506 248.952 536.622 248.859 536.759C248.769 536.895 248.724 537.046 248.724 537.21C248.724 537.412 248.783 537.578 248.901 537.708C249.019 537.836 249.175 537.941 249.371 538.025C249.57 538.106 249.798 538.172 250.055 538.225C250.313 538.278 250.583 538.328 250.865 538.374L251.554 538.495C251.83 538.542 252.122 538.596 252.429 538.658C252.737 538.717 253.041 538.795 253.342 538.891C253.643 538.987 253.932 539.108 254.208 539.254C254.484 539.4 254.728 539.581 254.939 539.799C255.15 540.016 255.317 540.275 255.441 540.576C255.566 540.877 255.628 541.233 255.628 541.642C255.628 542.157 255.521 542.617 255.306 543.02C255.095 543.424 254.783 543.765 254.371 544.044C253.961 544.321 253.455 544.53 252.853 544.673C252.254 544.819 251.565 544.892 250.786 544.892C249.967 544.892 249.245 544.811 248.621 544.65C248.001 544.488 247.479 544.254 247.057 543.947C246.638 543.636 246.322 543.255 246.108 542.801C245.893 542.345 245.786 541.824 245.786 541.237H248.538C248.538 541.752 248.721 542.148 249.087 542.424C249.453 542.697 250.013 542.834 250.768 542.834C251.096 542.834 251.391 542.809 251.652 542.759C251.916 542.707 252.138 542.631 252.318 542.531C252.501 542.432 252.64 542.311 252.737 542.168C252.833 542.026 252.881 541.864 252.881 541.684C252.881 541.464 252.822 541.285 252.704 541.149C252.589 541.009 252.428 540.894 252.22 540.804C252.015 540.711 251.772 540.635 251.489 540.576C251.207 540.517 250.901 540.458 250.572 540.399L249.883 540.278C249.632 540.235 249.36 540.184 249.068 540.125C248.777 540.066 248.486 539.99 248.198 539.896C247.909 539.803 247.63 539.687 247.36 539.547C247.093 539.408 246.857 539.234 246.652 539.026C246.447 538.818 246.283 538.57 246.159 538.281C246.038 537.992 245.977 537.654 245.977 537.266C245.977 536.773 246.081 536.329 246.289 535.935C246.5 535.538 246.801 535.201 247.192 534.925C247.586 534.648 248.066 534.437 248.631 534.292C249.199 534.143 249.84 534.068 250.553 534.068ZM256.614 538.109C256.614 537.488 256.727 536.928 256.954 536.428C257.184 535.929 257.511 535.505 257.936 535.157C258.365 534.807 258.883 534.538 259.491 534.352C260.099 534.163 260.785 534.068 261.549 534.068C262.331 534.068 263.031 534.169 263.648 534.371C264.266 534.569 264.789 534.859 265.217 535.241C265.645 535.623 265.971 536.09 266.195 536.642C266.421 537.195 266.535 537.822 266.535 538.523V544.612H263.746V541.987C263.631 542.437 263.454 542.842 263.215 543.202C262.979 543.559 262.692 543.863 262.354 544.114C262.019 544.366 261.636 544.558 261.204 544.691C260.776 544.825 260.31 544.892 259.808 544.892C259.283 544.892 258.805 544.819 258.374 544.673C257.946 544.53 257.578 544.327 257.271 544.063C256.966 543.796 256.731 543.476 256.563 543.104C256.395 542.732 256.312 542.317 256.312 541.861C256.312 541.374 256.408 540.939 256.6 540.558C256.796 540.173 257.075 539.848 257.438 539.585C257.804 539.318 258.251 539.114 258.779 538.975C259.306 538.832 259.905 538.761 260.576 538.761H263.746V538.523C263.746 538.169 263.695 537.853 263.592 537.573C263.49 537.294 263.343 537.058 263.15 536.866C262.958 536.67 262.72 536.521 262.438 536.419C262.159 536.317 261.84 536.265 261.484 536.265C261.124 536.265 260.812 536.309 260.548 536.396C260.287 536.48 260.07 536.602 259.896 536.763C259.725 536.922 259.598 537.114 259.514 537.341C259.434 537.567 259.393 537.823 259.393 538.109H256.614ZM260.864 540.455C260.284 540.455 259.845 540.553 259.547 540.748C259.249 540.941 259.1 541.226 259.1 541.605C259.1 541.993 259.255 542.292 259.566 542.503C259.879 542.711 260.326 542.815 260.906 542.815C261.316 542.815 261.693 542.764 262.038 542.662C262.385 542.556 262.685 542.412 262.936 542.229C263.191 542.046 263.389 541.828 263.532 541.577C263.675 541.326 263.746 541.053 263.746 540.758V540.455H260.864ZM272.139 534.068C272.893 534.068 273.565 534.15 274.154 534.315C274.747 534.479 275.247 534.717 275.653 535.027C276.06 535.334 276.37 535.708 276.584 536.149C276.799 536.59 276.906 537.086 276.906 537.639H274.154C274.154 537.4 274.113 537.187 274.029 537.001C273.945 536.812 273.819 536.65 273.652 536.517C273.487 536.383 273.282 536.282 273.037 536.214C272.795 536.143 272.514 536.107 272.195 536.107C271.915 536.107 271.659 536.133 271.426 536.186C271.194 536.239 270.995 536.313 270.831 536.41C270.666 536.506 270.537 536.622 270.444 536.759C270.354 536.895 270.309 537.046 270.309 537.21C270.309 537.412 270.368 537.578 270.486 537.708C270.604 537.836 270.761 537.941 270.956 538.025C271.155 538.106 271.383 538.172 271.641 538.225C271.898 538.278 272.168 538.328 272.451 538.374L273.14 538.495C273.416 538.542 273.708 538.596 274.015 538.658C274.322 538.717 274.626 538.795 274.927 538.891C275.228 538.987 275.517 539.108 275.793 539.254C276.069 539.4 276.313 539.581 276.524 539.799C276.735 540.016 276.903 540.275 277.027 540.576C277.151 540.877 277.213 541.233 277.213 541.642C277.213 542.157 277.106 542.617 276.892 543.02C276.681 543.424 276.369 543.765 275.956 544.044C275.546 544.321 275.04 544.53 274.438 544.673C273.839 544.819 273.15 544.892 272.371 544.892C271.552 544.892 270.831 544.811 270.207 544.65C269.586 544.488 269.065 544.254 268.643 543.947C268.224 543.636 267.907 543.255 267.693 542.801C267.479 542.345 267.372 541.824 267.372 541.237H270.123C270.123 541.752 270.306 542.148 270.672 542.424C271.038 542.697 271.599 542.834 272.353 542.834C272.682 542.834 272.977 542.809 273.237 542.759C273.501 542.707 273.723 542.631 273.903 542.531C274.086 542.432 274.226 542.311 274.322 542.168C274.418 542.026 274.466 541.864 274.466 541.684C274.466 541.464 274.407 541.285 274.289 541.149C274.175 541.009 274.013 540.894 273.805 540.804C273.6 540.711 273.357 540.635 273.074 540.576C272.792 540.517 272.486 540.458 272.157 540.399L271.468 540.278C271.217 540.235 270.945 540.184 270.654 540.125C270.362 540.066 270.072 539.99 269.783 539.896C269.494 539.803 269.215 539.687 268.945 539.547C268.678 539.408 268.442 539.234 268.238 539.026C268.033 538.818 267.868 538.57 267.744 538.281C267.623 537.992 267.563 537.654 267.563 537.266C267.563 536.773 267.666 536.329 267.874 535.935C268.085 535.538 268.387 535.201 268.778 534.925C269.172 534.648 269.651 534.437 270.216 534.292C270.784 534.143 271.425 534.068 272.139 534.068ZM280.938 533.272H278.094V530.833H280.938V533.272ZM280.91 544.612H278.122V534.347H280.91V544.612ZM292.018 531.023C292.871 531.023 293.64 531.126 294.322 531.331C295.008 531.536 295.59 531.83 296.068 532.215C296.549 532.6 296.918 533.07 297.176 533.626C297.434 534.178 297.562 534.802 297.562 535.497H294.741C294.741 535.178 294.675 534.889 294.541 534.631C294.411 534.374 294.225 534.155 293.982 533.975C293.74 533.795 293.45 533.657 293.112 533.561C292.774 533.464 292.397 533.416 291.981 533.416C291.751 533.416 291.524 533.432 291.301 533.463C291.078 533.494 290.867 533.54 290.668 533.603C290.469 533.665 290.286 533.742 290.119 533.835C289.951 533.928 289.805 534.037 289.681 534.161C289.56 534.285 289.465 534.425 289.397 534.58C289.329 534.735 289.295 534.906 289.295 535.092C289.295 535.356 289.358 535.572 289.485 535.739C289.616 535.904 289.807 536.039 290.058 536.144C290.313 536.25 290.626 536.337 290.998 536.405C291.371 536.473 291.801 536.543 292.288 536.615L292.833 536.694C293.112 536.734 293.399 536.779 293.694 536.829C293.989 536.875 294.284 536.933 294.578 537.001C294.873 537.069 295.162 537.151 295.444 537.248C295.73 537.344 296 537.46 296.254 537.597C296.509 537.733 296.743 537.895 296.957 538.081C297.171 538.264 297.356 538.478 297.511 538.723C297.669 538.969 297.792 539.248 297.879 539.561C297.966 539.875 298.009 540.229 298.009 540.623C298.009 541.321 297.87 541.937 297.59 542.471C297.314 543.002 296.92 543.447 296.408 543.807C295.899 544.164 295.283 544.434 294.56 544.617C293.837 544.8 293.03 544.892 292.139 544.892C291.18 544.892 290.33 544.788 289.588 544.58C288.846 544.372 288.221 544.071 287.712 543.677C287.206 543.282 286.821 542.801 286.557 542.233C286.293 541.662 286.162 541.015 286.162 540.292H288.983C288.983 540.637 289.054 540.945 289.197 541.219C289.343 541.492 289.551 541.723 289.821 541.912C290.094 542.102 290.424 542.247 290.812 542.35C291.2 542.449 291.636 542.499 292.12 542.499C292.533 542.499 292.92 542.462 293.28 542.387C293.643 542.313 293.958 542.199 294.225 542.047C294.495 541.895 294.707 541.706 294.862 541.479C295.018 541.253 295.095 540.987 295.095 540.683C295.095 540.392 295.03 540.157 294.9 539.98C294.769 539.803 294.578 539.661 294.327 539.552C294.079 539.443 293.775 539.358 293.415 539.296C293.058 539.231 292.651 539.166 292.195 539.1L291.492 538.998C291.126 538.945 290.746 538.888 290.351 538.826C289.957 538.761 289.571 538.674 289.192 538.565C288.814 538.456 288.454 538.318 288.112 538.151C287.771 537.983 287.471 537.769 287.214 537.508C286.956 537.248 286.751 536.934 286.599 536.568C286.45 536.202 286.376 535.766 286.376 535.26C286.376 534.797 286.441 534.372 286.571 533.984C286.702 533.596 286.886 533.246 287.125 532.932C287.367 532.619 287.657 532.344 287.996 532.108C288.337 531.869 288.717 531.669 289.136 531.508C289.555 531.346 290.007 531.225 290.491 531.145C290.978 531.064 291.487 531.023 292.018 531.023ZM301.723 533.272H298.879V530.833H301.723V533.272ZM301.695 544.612H298.907V534.347H301.695V544.612ZM307.344 534.068C308.099 534.068 308.77 534.15 309.36 534.315C309.953 534.479 310.453 534.717 310.859 535.027C311.266 535.334 311.576 535.708 311.79 536.149C312.004 536.59 312.111 537.086 312.111 537.639H309.36C309.36 537.4 309.318 537.187 309.234 537.001C309.151 536.812 309.025 536.65 308.857 536.517C308.693 536.383 308.488 536.282 308.243 536.214C308.001 536.143 307.72 536.107 307.4 536.107C307.121 536.107 306.865 536.133 306.632 536.186C306.399 536.239 306.201 536.313 306.036 536.41C305.872 536.506 305.743 536.622 305.65 536.759C305.56 536.895 305.515 537.046 305.515 537.21C305.515 537.412 305.574 537.578 305.692 537.708C305.81 537.836 305.966 537.941 306.162 538.025C306.361 538.106 306.589 538.172 306.846 538.225C307.104 538.278 307.374 538.328 307.656 538.374L308.345 538.495C308.621 538.542 308.913 538.596 309.22 538.658C309.528 538.717 309.832 538.795 310.133 538.891C310.434 538.987 310.723 539.108 310.999 539.254C311.275 539.4 311.519 539.581 311.73 539.799C311.941 540.016 312.108 540.275 312.232 540.576C312.357 540.877 312.419 541.233 312.419 541.642C312.419 542.157 312.312 542.617 312.097 543.02C311.886 543.424 311.574 543.765 311.162 544.044C310.752 544.321 310.246 544.53 309.644 544.673C309.045 544.819 308.356 544.892 307.577 544.892C306.758 544.892 306.036 544.811 305.412 544.65C304.792 544.488 304.27 544.254 303.848 543.947C303.429 543.636 303.113 543.255 302.899 542.801C302.684 542.345 302.577 541.824 302.577 541.237H305.329C305.329 541.752 305.512 542.148 305.878 542.424C306.244 542.697 306.804 542.834 307.559 542.834C307.887 542.834 308.182 542.809 308.443 542.759C308.707 542.707 308.929 542.631 309.109 542.531C309.292 542.432 309.431 542.311 309.528 542.168C309.624 542.026 309.672 541.864 309.672 541.684C309.672 541.464 309.613 541.285 309.495 541.149C309.38 541.009 309.219 540.894 309.011 540.804C308.806 540.711 308.562 540.635 308.28 540.576C307.998 540.517 307.692 540.458 307.363 540.399L306.674 540.278C306.423 540.235 306.151 540.184 305.859 540.125C305.568 540.066 305.277 539.99 304.989 539.896C304.7 539.803 304.421 539.687 304.151 539.547C303.884 539.408 303.648 539.234 303.443 539.026C303.238 538.818 303.074 538.57 302.95 538.281C302.829 537.992 302.768 537.654 302.768 537.266C302.768 536.773 302.872 536.329 303.08 535.935C303.291 535.538 303.592 535.201 303.983 534.925C304.377 534.648 304.857 534.437 305.422 534.292C305.99 534.143 306.631 534.068 307.344 534.068ZM322.878 534.347L324.74 542.704L326.719 534.347H329.465L326.789 544.612H322.906L321.03 536.386L319.154 544.612H315.276L312.599 534.347H315.458L317.427 542.787L319.303 534.347H322.878ZM329.79 538.109C329.79 537.488 329.903 536.928 330.129 536.428C330.359 535.929 330.687 535.505 331.112 535.157C331.54 534.807 332.058 534.538 332.667 534.352C333.275 534.163 333.961 534.068 334.724 534.068C335.506 534.068 336.206 534.169 336.824 534.371C337.441 534.569 337.964 534.859 338.393 535.241C338.821 535.623 339.147 536.09 339.37 536.642C339.597 537.195 339.71 537.822 339.71 538.523V544.612H336.921V541.987C336.807 542.437 336.63 542.842 336.391 543.202C336.155 543.559 335.868 543.863 335.53 544.114C335.194 544.366 334.811 544.558 334.38 544.691C333.951 544.825 333.486 544.892 332.983 544.892C332.459 544.892 331.981 544.819 331.549 544.673C331.121 544.53 330.753 544.327 330.446 544.063C330.142 543.796 329.906 543.476 329.738 543.104C329.571 542.732 329.487 542.317 329.487 541.861C329.487 541.374 329.583 540.939 329.776 540.558C329.971 540.173 330.25 539.848 330.614 539.585C330.98 539.318 331.427 539.114 331.954 538.975C332.482 538.832 333.081 538.761 333.751 538.761H336.921V538.523C336.921 538.169 336.87 537.853 336.768 537.573C336.665 537.294 336.518 537.058 336.326 536.866C336.133 536.67 335.896 536.521 335.613 536.419C335.334 536.317 335.016 536.265 334.659 536.265C334.299 536.265 333.987 536.309 333.723 536.396C333.463 536.48 333.245 536.602 333.072 536.763C332.901 536.922 332.774 537.114 332.69 537.341C332.609 537.567 332.569 537.823 332.569 538.109H329.79ZM334.04 540.455C333.46 540.455 333.02 540.553 332.722 540.748C332.424 540.941 332.276 541.226 332.276 541.605C332.276 541.993 332.431 542.292 332.741 542.503C333.054 542.711 333.501 542.815 334.082 542.815C334.491 542.815 334.869 542.764 335.213 542.662C335.561 542.556 335.86 542.412 336.111 542.229C336.366 542.046 336.565 541.828 336.707 541.577C336.85 541.326 336.921 541.053 336.921 540.758V540.455H334.04ZM348.194 544.612H345.252V531.298H348.194V544.612ZM352.231 544.612H349.442V534.347H352.231V537.434C352.339 536.891 352.499 536.41 352.71 535.991C352.921 535.572 353.179 535.221 353.483 534.939C353.787 534.653 354.136 534.437 354.53 534.292C354.928 534.143 355.364 534.068 355.839 534.068C356.391 534.068 356.878 534.167 357.3 534.366C357.726 534.565 358.082 534.858 358.371 535.246C358.66 535.631 358.877 536.109 359.023 536.68C359.172 537.251 359.246 537.907 359.246 538.649V544.612H356.458V539.114C356.458 537.367 355.794 536.493 354.465 536.493C354.108 536.493 353.792 536.554 353.516 536.675C353.239 536.793 353.005 536.968 352.813 537.201C352.623 537.431 352.479 537.716 352.38 538.058C352.28 538.396 352.231 538.785 352.231 539.226V544.612ZM366.951 544.533C366.091 544.769 365.325 544.887 364.651 544.887C363.522 544.887 362.665 544.556 362.081 543.895C361.501 543.231 361.211 542.246 361.211 540.939V536.563H359.926V534.347H361.211V531.982H363.999V534.347H366.951V536.563H363.999V540.944C363.999 541.534 364.108 541.965 364.325 542.238C364.543 542.508 364.889 542.643 365.363 542.643C365.556 542.643 365.781 542.623 366.038 542.583C366.296 542.539 366.6 542.472 366.951 542.382V544.533ZM370.761 544.612H367.972V534.347H370.761V537.913C370.854 537.364 370.991 536.869 371.171 536.428C371.351 535.988 371.58 535.614 371.86 535.306C372.139 534.999 372.471 534.763 372.856 534.599C373.244 534.431 373.689 534.347 374.192 534.347H374.802V536.968H373.726C373.155 536.968 372.679 537.027 372.297 537.145C371.919 537.263 371.614 537.445 371.385 537.69C371.158 537.932 370.997 538.239 370.901 538.612C370.808 538.981 370.761 539.419 370.761 539.924V544.612ZM375.506 538.109C375.506 537.488 375.619 536.928 375.846 536.428C376.076 535.929 376.403 535.505 376.828 535.157C377.256 534.807 377.775 534.538 378.383 534.352C378.991 534.163 379.677 534.068 380.441 534.068C381.223 534.068 381.923 534.169 382.54 534.371C383.158 534.569 383.681 534.859 384.109 535.241C384.537 535.623 384.863 536.09 385.087 536.642C385.313 537.195 385.426 537.822 385.426 538.523V544.612H382.638V541.987C382.523 542.437 382.346 542.842 382.107 543.202C381.871 543.559 381.584 543.863 381.246 544.114C380.911 544.366 380.528 544.558 380.096 544.691C379.668 544.825 379.202 544.892 378.7 544.892C378.175 544.892 377.697 544.819 377.266 544.673C376.837 544.53 376.47 544.327 376.162 544.063C375.858 543.796 375.622 543.476 375.455 543.104C375.287 542.732 375.203 542.317 375.203 541.861C375.203 541.374 375.3 540.939 375.492 540.558C375.688 540.173 375.967 539.848 376.33 539.585C376.696 539.318 377.143 539.114 377.671 538.975C378.198 538.832 378.797 538.761 379.468 538.761H382.638V538.523C382.638 538.169 382.587 537.853 382.484 537.573C382.382 537.294 382.234 537.058 382.042 536.866C381.85 536.67 381.612 536.521 381.33 536.419C381.05 536.317 380.732 536.265 380.375 536.265C380.015 536.265 379.704 536.309 379.44 536.396C379.179 536.48 378.962 536.602 378.788 536.763C378.617 536.922 378.49 537.114 378.406 537.341C378.326 537.567 378.285 537.823 378.285 538.109H375.506ZM379.756 540.455C379.176 540.455 378.737 540.553 378.439 540.748C378.141 540.941 377.992 541.226 377.992 541.605C377.992 541.993 378.147 542.292 378.457 542.503C378.771 542.711 379.218 542.815 379.798 542.815C380.208 542.815 380.585 542.764 380.929 542.662C381.277 542.556 381.577 542.412 381.828 542.229C382.082 542.046 382.281 541.828 382.424 541.577C382.567 541.326 382.638 541.053 382.638 540.758V540.455H379.756ZM396.489 531.023C397.343 531.023 398.111 531.126 398.794 531.331C399.48 531.536 400.062 531.83 400.539 532.215C401.021 532.6 401.39 533.07 401.647 533.626C401.905 534.178 402.034 534.802 402.034 535.497H399.213C399.213 535.178 399.146 534.889 399.013 534.631C398.882 534.374 398.696 534.155 398.454 533.975C398.212 533.795 397.922 533.657 397.583 533.561C397.245 533.464 396.868 533.416 396.452 533.416C396.222 533.416 395.996 533.432 395.772 533.463C395.549 533.494 395.338 533.54 395.139 533.603C394.941 533.665 394.758 533.742 394.59 533.835C394.422 533.928 394.277 534.037 394.152 534.161C394.031 534.285 393.937 534.425 393.868 534.58C393.8 534.735 393.766 534.906 393.766 535.092C393.766 535.356 393.83 535.572 393.957 535.739C394.087 535.904 394.278 536.039 394.529 536.144C394.784 536.25 395.097 536.337 395.47 536.405C395.842 536.473 396.272 536.543 396.759 536.615L397.304 536.694C397.583 536.734 397.87 536.779 398.165 536.829C398.46 536.875 398.755 536.933 399.05 537.001C399.345 537.069 399.633 537.151 399.916 537.248C400.201 537.344 400.471 537.46 400.726 537.597C400.98 537.733 401.214 537.895 401.429 538.081C401.643 538.264 401.827 538.478 401.983 538.723C402.141 538.969 402.263 539.248 402.35 539.561C402.437 539.875 402.481 540.229 402.481 540.623C402.481 541.321 402.341 541.937 402.062 542.471C401.786 543.002 401.391 543.447 400.879 543.807C400.37 544.164 399.754 544.434 399.031 544.617C398.308 544.8 397.501 544.892 396.61 544.892C395.651 544.892 394.801 544.788 394.059 544.58C393.318 544.372 392.692 544.071 392.183 543.677C391.677 543.282 391.292 542.801 391.029 542.233C390.765 541.662 390.633 541.015 390.633 540.292H393.454C393.454 540.637 393.525 540.945 393.668 541.219C393.814 541.492 394.022 541.723 394.292 541.912C394.565 542.102 394.896 542.247 395.284 542.35C395.672 542.449 396.108 542.499 396.592 542.499C397.005 542.499 397.391 542.462 397.751 542.387C398.114 542.313 398.429 542.199 398.696 542.047C398.966 541.895 399.179 541.706 399.334 541.479C399.489 541.253 399.567 540.987 399.567 540.683C399.567 540.392 399.501 540.157 399.371 539.98C399.241 539.803 399.05 539.661 398.798 539.552C398.55 539.443 398.246 539.358 397.886 539.296C397.529 539.231 397.122 539.166 396.666 539.1L395.963 538.998C395.597 538.945 395.217 538.888 394.823 538.826C394.429 538.761 394.042 538.674 393.664 538.565C393.285 538.456 392.925 538.318 392.584 538.151C392.242 537.983 391.943 537.769 391.685 537.508C391.427 537.248 391.223 536.934 391.071 536.568C390.922 536.202 390.847 535.766 390.847 535.26C390.847 534.797 390.912 534.372 391.043 533.984C391.173 533.596 391.358 533.246 391.597 532.932C391.839 532.619 392.129 532.344 392.467 532.108C392.809 531.869 393.189 531.669 393.608 531.508C394.027 531.346 394.478 531.225 394.962 531.145C395.45 531.064 395.959 531.023 396.489 531.023ZM413.366 541.135C413.227 541.718 413.008 542.243 412.71 542.708C412.415 543.171 412.055 543.565 411.63 543.891C411.205 544.214 410.722 544.46 410.182 544.631C409.645 544.805 409.065 544.892 408.441 544.892C407.926 544.892 407.439 544.833 406.979 544.715C406.523 544.597 406.102 544.428 405.718 544.207C405.336 543.984 404.991 543.712 404.684 543.393C404.38 543.073 404.122 542.713 403.911 542.313C403.7 541.909 403.537 541.47 403.423 540.995C403.311 540.517 403.255 540.008 403.255 539.468C403.255 538.931 403.311 538.425 403.423 537.951C403.534 537.473 403.694 537.033 403.902 536.633C404.113 536.233 404.369 535.874 404.67 535.558C404.971 535.241 405.311 534.973 405.69 534.752C406.071 534.532 406.489 534.363 406.942 534.245C407.395 534.127 407.876 534.068 408.385 534.068C409.142 534.068 409.83 534.197 410.447 534.454C411.068 534.709 411.597 535.072 412.035 535.544C412.476 536.012 412.815 536.579 413.054 537.243C413.293 537.904 413.413 538.641 413.413 539.454C413.413 539.578 413.41 539.704 413.404 539.831C413.4 539.955 413.391 540.083 413.376 540.213H405.95C405.994 540.598 406.084 540.942 406.22 541.247C406.36 541.548 406.539 541.804 406.756 542.015C406.976 542.223 407.234 542.382 407.529 542.494C407.826 542.606 408.157 542.662 408.52 542.662C409.066 542.662 409.523 542.534 409.889 542.28C410.258 542.022 410.545 541.641 410.75 541.135H413.366ZM410.736 538.491C410.618 537.752 410.364 537.196 409.973 536.824C409.582 536.448 409.057 536.261 408.399 536.261C408.067 536.261 407.764 536.31 407.491 536.41C407.218 536.509 406.979 536.653 406.774 536.843C406.57 537.032 406.399 537.266 406.262 537.546C406.129 537.822 406.034 538.137 405.978 538.491H410.736ZM419.505 539.524L424.677 544.612H421.12L417.187 540.66V544.612H414.398V530.833H417.187V538.672L420.99 534.347H424.281L419.505 539.524ZM423.64 539.478C423.64 538.931 423.697 538.419 423.812 537.941C423.927 537.46 424.092 537.02 424.306 536.619C424.523 536.219 424.785 535.862 425.093 535.548C425.4 535.232 425.746 534.965 426.131 534.748C426.515 534.527 426.936 534.36 427.392 534.245C427.848 534.127 428.333 534.068 428.845 534.068C429.357 534.068 429.841 534.127 430.297 534.245C430.753 534.36 431.174 534.527 431.559 534.748C431.944 534.965 432.29 535.232 432.597 535.548C432.904 535.862 433.165 536.219 433.379 536.619C433.596 537.02 433.762 537.46 433.877 537.941C433.992 538.419 434.049 538.931 434.049 539.478C434.049 540.297 433.922 541.04 433.668 541.707C433.413 542.372 433.056 542.94 432.597 543.411C432.138 543.883 431.588 544.248 430.949 544.505C430.313 544.763 429.611 544.892 428.845 544.892C428.078 544.892 427.375 544.763 426.736 544.505C426.1 544.248 425.552 543.883 425.093 543.411C424.633 542.94 424.276 542.372 424.022 541.707C423.767 541.04 423.64 540.297 423.64 539.478ZM426.447 539.478C426.447 539.952 426.502 540.376 426.61 540.748C426.719 541.118 426.875 541.43 427.08 541.684C427.285 541.936 427.537 542.128 427.834 542.261C428.132 542.395 428.469 542.462 428.845 542.462C429.223 542.462 429.56 542.395 429.855 542.261C430.153 542.128 430.404 541.936 430.609 541.684C430.814 541.43 430.971 541.118 431.079 540.748C431.188 540.376 431.242 539.952 431.242 539.478C431.242 539.003 431.188 538.581 431.079 538.211C430.971 537.842 430.814 537.53 430.609 537.276C430.404 537.021 430.153 536.829 429.855 536.698C429.56 536.565 429.223 536.498 428.845 536.498C428.469 536.498 428.132 536.565 427.834 536.698C427.537 536.829 427.285 537.021 427.08 537.276C426.875 537.53 426.719 537.842 426.61 538.211C426.502 538.581 426.447 539.003 426.447 539.478ZM437.808 544.612H435.02V530.833H437.808V544.612ZM439.025 538.109C439.025 537.488 439.139 536.928 439.365 536.428C439.595 535.929 439.922 535.505 440.348 535.157C440.776 534.807 441.294 534.538 441.902 534.352C442.511 534.163 443.197 534.068 443.96 534.068C444.742 534.068 445.442 534.169 446.06 534.371C446.677 534.569 447.2 534.859 447.628 535.241C448.057 535.623 448.383 536.09 448.606 536.642C448.833 537.195 448.946 537.822 448.946 538.523V544.612H446.157V541.987C446.042 542.437 445.866 542.842 445.627 543.202C445.391 543.559 445.104 543.863 444.765 544.114C444.43 544.366 444.047 544.558 443.616 544.691C443.187 544.825 442.722 544.892 442.219 544.892C441.694 544.892 441.216 544.819 440.785 544.673C440.357 544.53 439.989 544.327 439.682 544.063C439.378 543.796 439.142 543.476 438.974 543.104C438.807 542.732 438.723 542.317 438.723 541.861C438.723 541.374 438.819 540.939 439.011 540.558C439.207 540.173 439.486 539.848 439.849 539.585C440.216 539.318 440.663 539.114 441.19 538.975C441.718 538.832 442.317 538.761 442.987 538.761H446.157V538.523C446.157 538.169 446.106 537.853 446.004 537.573C445.901 537.294 445.754 537.058 445.561 536.866C445.369 536.67 445.132 536.521 444.849 536.419C444.57 536.317 444.252 536.265 443.895 536.265C443.535 536.265 443.223 536.309 442.959 536.396C442.698 536.48 442.481 536.602 442.307 536.763C442.137 536.922 442.009 537.114 441.926 537.341C441.845 537.567 441.805 537.823 441.805 538.109H439.025ZM443.276 540.455C442.695 540.455 442.256 540.553 441.958 540.748C441.66 540.941 441.511 541.226 441.511 541.605C441.511 541.993 441.667 542.292 441.977 542.503C442.29 542.711 442.737 542.815 443.318 542.815C443.727 542.815 444.104 542.764 444.449 542.662C444.796 542.556 445.096 542.412 445.347 542.229C445.602 542.046 445.8 541.828 445.943 541.577C446.086 541.326 446.157 541.053 446.157 540.758V540.455H443.276ZM452.883 544.612H450.095V530.833H452.883V537.429C452.992 536.886 453.152 536.407 453.363 535.991C453.574 535.572 453.831 535.221 454.136 534.939C454.44 534.653 454.789 534.437 455.183 534.292C455.58 534.143 456.016 534.068 456.491 534.068C457.044 534.068 457.531 534.167 457.953 534.366C458.378 534.565 458.735 534.858 459.024 535.246C459.312 535.631 459.53 536.109 459.675 536.68C459.824 537.251 459.899 537.907 459.899 538.649V544.612H457.11V539.114C457.11 538.239 456.946 537.584 456.617 537.15C456.288 536.712 455.788 536.493 455.118 536.493C454.761 536.493 454.444 536.554 454.168 536.675C453.892 536.793 453.658 536.968 453.465 537.201C453.276 537.431 453.132 537.716 453.032 538.058C452.933 538.396 452.883 538.785 452.883 539.226V544.612ZM164.879 554.023C165.733 554.023 166.501 554.126 167.184 554.331C167.87 554.536 168.451 554.83 168.929 555.215C169.41 555.6 169.78 556.07 170.037 556.626C170.295 557.178 170.424 557.802 170.424 558.497H167.603C167.603 558.178 167.536 557.889 167.402 557.631C167.272 557.374 167.086 557.155 166.844 556.975C166.602 556.795 166.312 556.657 165.973 556.561C165.635 556.464 165.258 556.416 164.842 556.416C164.612 556.416 164.386 556.432 164.162 556.463C163.939 556.494 163.728 556.54 163.529 556.603C163.331 556.665 163.147 556.742 162.98 556.835C162.812 556.928 162.666 557.037 162.542 557.161C162.421 557.285 162.327 557.425 162.258 557.58C162.19 557.735 162.156 557.906 162.156 558.092C162.156 558.356 162.22 558.572 162.347 558.739C162.477 558.904 162.668 559.039 162.919 559.144C163.174 559.25 163.487 559.337 163.86 559.405C164.232 559.473 164.662 559.543 165.149 559.615L165.694 559.694C165.973 559.734 166.26 559.779 166.555 559.829C166.85 559.875 167.145 559.933 167.44 560.001C167.735 560.069 168.023 560.151 168.306 560.248C168.591 560.344 168.861 560.46 169.116 560.597C169.37 560.733 169.604 560.895 169.819 561.081C170.033 561.264 170.217 561.478 170.373 561.723C170.531 561.969 170.653 562.248 170.74 562.561C170.827 562.875 170.871 563.229 170.871 563.623C170.871 564.321 170.731 564.937 170.452 565.471C170.175 566.002 169.781 566.447 169.269 566.807C168.76 567.164 168.144 567.434 167.421 567.617C166.698 567.8 165.891 567.892 165 567.892C164.041 567.892 163.191 567.788 162.449 567.58C161.707 567.372 161.082 567.071 160.573 566.677C160.067 566.282 159.682 565.801 159.419 565.233C159.155 564.662 159.023 564.015 159.023 563.292H161.844C161.844 563.637 161.915 563.945 162.058 564.219C162.204 564.492 162.412 564.723 162.682 564.912C162.955 565.102 163.286 565.247 163.674 565.35C164.061 565.449 164.498 565.499 164.982 565.499C165.394 565.499 165.781 565.462 166.141 565.387C166.504 565.313 166.819 565.199 167.086 565.047C167.356 564.895 167.568 564.706 167.724 564.479C167.879 564.253 167.956 563.987 167.956 563.683C167.956 563.392 167.891 563.157 167.761 562.98C167.631 562.803 167.44 562.661 167.188 562.552C166.94 562.443 166.636 562.358 166.276 562.296C165.919 562.231 165.512 562.166 165.056 562.1L164.353 561.998C163.987 561.945 163.607 561.888 163.213 561.826C162.819 561.761 162.432 561.674 162.054 561.565C161.675 561.456 161.315 561.318 160.973 561.151C160.632 560.983 160.333 560.769 160.075 560.508C159.817 560.248 159.613 559.934 159.461 559.568C159.312 559.202 159.237 558.766 159.237 558.26C159.237 557.797 159.302 557.372 159.433 556.984C159.563 556.596 159.748 556.246 159.987 555.932C160.229 555.619 160.519 555.344 160.857 555.108C161.198 554.869 161.579 554.669 161.998 554.508C162.417 554.346 162.868 554.225 163.352 554.145C163.84 554.064 164.349 554.023 164.879 554.023ZM187.652 554.298V567.612H184.71V556.77L181.26 567.612H178.048L174.636 556.765V567.612H171.815V554.298H176.535L179.785 564.61L183.066 554.298H187.652ZM194.308 561.006L200.899 567.612H197.012L191.887 562.412V567.612H188.945V554.298H191.887V559.987L196.845 554.298H200.462L194.308 561.006ZM208.835 567.612H205.893V554.298H208.835V567.612ZM210.13 554.298H214.985C215.656 554.298 216.286 554.37 216.875 554.512C217.468 554.652 218.014 554.857 218.514 555.127C219.014 555.397 219.461 555.726 219.855 556.114C220.252 556.502 220.589 556.942 220.865 557.436C221.141 557.929 221.352 558.471 221.498 559.061C221.647 559.65 221.722 560.282 221.722 560.955C221.722 561.629 221.647 562.26 221.498 562.85C221.352 563.44 221.141 563.981 220.865 564.475C220.589 564.968 220.252 565.409 219.855 565.797C219.461 566.185 219.014 566.514 218.514 566.784C218.014 567.054 217.468 567.26 216.875 567.403C216.283 567.542 215.653 567.612 214.985 567.612H210.13V554.298ZM214.92 565.089C215.529 565.089 216.07 564.999 216.545 564.819C217.023 564.636 217.425 564.369 217.751 564.018C218.08 563.668 218.329 563.236 218.5 562.724C218.674 562.209 218.761 561.619 218.761 560.955C218.761 560.291 218.674 559.703 218.5 559.191C218.329 558.676 218.08 558.243 217.751 557.892C217.425 557.541 217.023 557.276 216.545 557.096C216.07 556.913 215.529 556.821 214.92 556.821H213.044V565.089H214.92ZM235.051 567.612H230.876L225.68 556.928V567.612H222.859V554.298H227.31L232.23 564.349V554.298H235.051V567.612ZM247.342 554.298C248.028 554.298 248.65 554.377 249.209 554.536C249.767 554.691 250.244 554.914 250.638 555.206C251.035 555.498 251.341 555.851 251.555 556.267C251.769 556.683 251.876 557.152 251.876 557.673C251.876 558.089 251.808 558.474 251.671 558.828C251.535 559.178 251.344 559.487 251.099 559.754C250.857 560.018 250.568 560.234 250.233 560.401C249.898 560.569 249.532 560.676 249.134 560.722C249.615 560.766 250.058 560.878 250.461 561.058C250.865 561.238 251.212 561.472 251.504 561.761C251.799 562.049 252.028 562.386 252.193 562.771C252.357 563.153 252.44 563.572 252.44 564.028C252.44 564.577 252.319 565.072 252.076 565.513C251.837 565.953 251.501 566.331 251.066 566.644C250.632 566.954 250.112 567.193 249.507 567.361C248.902 567.529 248.234 567.612 247.505 567.612H240.68V554.298H247.342ZM247.039 559.833C247.328 559.833 247.59 559.796 247.826 559.722C248.065 559.647 248.268 559.538 248.436 559.396C248.604 559.253 248.732 559.081 248.822 558.879C248.916 558.674 248.962 558.444 248.962 558.19C248.962 557.942 248.917 557.723 248.827 557.534C248.74 557.341 248.614 557.18 248.45 557.049C248.286 556.919 248.084 556.821 247.845 556.756C247.606 556.688 247.336 556.654 247.035 556.654H243.622V559.833H247.039ZM247.295 565.257C248.031 565.257 248.582 565.125 248.948 564.861C249.314 564.594 249.497 564.18 249.497 563.618C249.497 563.059 249.314 562.648 248.948 562.384C248.582 562.118 248.033 561.984 247.3 561.984H243.622V565.257H247.295ZM252.997 560.955C252.997 560.257 253.069 559.602 253.211 558.991C253.357 558.376 253.564 557.813 253.83 557.301C254.097 556.786 254.423 556.325 254.808 555.918C255.193 555.512 255.624 555.169 256.102 554.889C256.58 554.607 257.102 554.391 257.666 554.242C258.234 554.093 258.835 554.019 259.468 554.019C260.101 554.019 260.7 554.093 261.265 554.242C261.833 554.391 262.356 554.607 262.834 554.889C263.315 555.169 263.746 555.512 264.128 555.918C264.513 556.325 264.839 556.786 265.106 557.301C265.376 557.813 265.582 558.376 265.725 558.991C265.871 559.605 265.944 560.26 265.944 560.955C265.944 561.65 265.871 562.305 265.725 562.92C265.582 563.534 265.376 564.099 265.106 564.614C264.839 565.126 264.513 565.586 264.128 565.992C263.746 566.399 263.315 566.743 262.834 567.026C262.356 567.305 261.833 567.519 261.265 567.668C260.7 567.817 260.101 567.892 259.468 567.892C258.835 567.892 258.234 567.817 257.666 567.668C257.102 567.519 256.58 567.305 256.102 567.026C255.624 566.743 255.193 566.399 254.808 565.992C254.423 565.586 254.097 565.126 253.83 564.614C253.564 564.099 253.357 563.534 253.211 562.92C253.069 562.305 252.997 561.65 252.997 560.955ZM255.958 560.955C255.958 561.666 256.036 562.296 256.191 562.845C256.349 563.395 256.577 563.857 256.875 564.233C257.173 564.605 257.539 564.887 257.974 565.08C258.411 565.272 258.909 565.368 259.468 565.368C260.027 565.368 260.523 565.272 260.958 565.08C261.395 564.887 261.763 564.605 262.061 564.233C262.362 563.857 262.59 563.395 262.745 562.845C262.904 562.296 262.983 561.666 262.983 560.955C262.983 560.245 262.904 559.615 262.745 559.065C262.59 558.516 262.362 558.055 262.061 557.683C261.763 557.307 261.395 557.023 260.958 556.831C260.523 556.638 260.027 556.542 259.468 556.542C258.909 556.542 258.411 556.638 257.974 556.831C257.539 557.023 257.173 557.307 256.875 557.683C256.577 558.055 256.349 558.516 256.191 559.065C256.036 559.615 255.958 560.245 255.958 560.955ZM265.565 567.612L270.155 554.298H274.28L278.805 567.612H275.672L274.778 564.684H269.541L268.638 567.612H265.565ZM274.047 562.282L272.18 556.146L270.286 562.282H274.047ZM279.468 567.612V554.294H286.056C286.804 554.294 287.474 554.388 288.067 554.577C288.663 554.767 289.167 555.037 289.58 555.387C289.996 555.735 290.314 556.157 290.534 556.654C290.754 557.15 290.865 557.706 290.865 558.32C290.865 558.857 290.778 559.346 290.604 559.787C290.43 560.224 290.182 560.601 289.859 560.918C289.539 561.231 289.151 561.478 288.695 561.658C288.242 561.835 287.735 561.933 287.173 561.951C287.704 561.989 288.171 562.184 288.574 562.538C288.981 562.889 289.33 563.392 289.622 564.046L291.223 567.612H287.96L286.344 564.056C286.226 563.792 286.107 563.575 285.986 563.404C285.865 563.23 285.728 563.092 285.576 562.99C285.424 562.887 285.249 562.816 285.05 562.775C284.855 562.735 284.619 562.715 284.342 562.715H282.411V567.612H279.468ZM285.716 560.341C286.063 560.341 286.374 560.3 286.647 560.22C286.92 560.136 287.151 560.016 287.34 559.861C287.53 559.703 287.674 559.511 287.773 559.284C287.873 559.054 287.922 558.794 287.922 558.502C287.922 557.928 287.732 557.489 287.35 557.184C286.968 556.877 286.422 556.724 285.711 556.724H282.411V560.341H285.716ZM292.234 554.298H297.09C297.76 554.298 298.39 554.37 298.98 554.512C299.572 554.652 300.119 554.857 300.618 555.127C301.118 555.397 301.565 555.726 301.959 556.114C302.356 556.502 302.693 556.942 302.969 557.436C303.245 557.929 303.456 558.471 303.602 559.061C303.751 559.65 303.826 560.282 303.826 560.955C303.826 561.629 303.751 562.26 303.602 562.85C303.456 563.44 303.245 563.981 302.969 564.475C302.693 564.968 302.356 565.409 301.959 565.797C301.565 566.185 301.118 566.514 300.618 566.784C300.119 567.054 299.572 567.26 298.98 567.403C298.387 567.542 297.757 567.612 297.09 567.612H292.234V554.298ZM297.024 565.089C297.633 565.089 298.174 564.999 298.649 564.819C299.127 564.636 299.529 564.369 299.855 564.018C300.184 563.668 300.434 563.236 300.604 562.724C300.778 562.209 300.865 561.619 300.865 560.955C300.865 560.291 300.778 559.703 300.604 559.191C300.434 558.676 300.184 558.243 299.855 557.892C299.529 557.541 299.127 557.276 298.649 557.096C298.174 556.913 297.633 556.821 297.024 556.821H295.148V565.089H297.024ZM307.906 567.612H304.963V554.298H307.906V567.612ZM321.393 567.612H317.217L312.022 556.928V567.612H309.2V554.298H313.651L318.572 564.349V554.298H321.393V567.612ZM325.496 560.955C325.496 561.672 325.573 562.308 325.725 562.864C325.877 563.419 326.099 563.887 326.39 564.265C326.685 564.644 327.047 564.931 327.475 565.126C327.903 565.322 328.395 565.42 328.951 565.42C329.444 565.42 329.902 565.35 330.324 565.21C330.749 565.067 331.119 564.867 331.432 564.61C331.749 564.352 332.001 564.043 332.191 563.683C332.38 563.323 332.489 562.923 332.517 562.482H328.806V560.49H335.314V567.612H332.559V564.302C332.382 564.852 332.144 565.348 331.846 565.792C331.551 566.236 331.205 566.613 330.808 566.923C330.414 567.234 329.975 567.473 329.491 567.64C329.01 567.808 328.493 567.892 327.941 567.892C327.419 567.892 326.923 567.816 326.451 567.664C325.982 567.511 325.548 567.294 325.147 567.012C324.747 566.726 324.385 566.379 324.063 565.969C323.743 565.559 323.47 565.098 323.243 564.586C323.017 564.071 322.841 563.509 322.717 562.901C322.596 562.29 322.536 561.641 322.536 560.955C322.536 560.257 322.607 559.602 322.75 558.991C322.896 558.376 323.102 557.813 323.369 557.301C323.636 556.786 323.96 556.325 324.342 555.918C324.727 555.512 325.158 555.169 325.636 554.889C326.117 554.607 326.64 554.391 327.205 554.242C327.77 554.093 328.369 554.019 329.002 554.019C329.526 554.019 330.029 554.072 330.51 554.177C330.994 554.283 331.449 554.436 331.874 554.638C332.303 554.84 332.697 555.088 333.057 555.383C333.42 555.675 333.743 556.008 334.025 556.384C334.31 556.759 334.551 557.175 334.747 557.631C334.942 558.084 335.086 558.572 335.179 559.093H332.256C332.16 558.674 332.012 558.306 331.814 557.99C331.618 557.67 331.381 557.403 331.101 557.189C330.822 556.975 330.506 556.814 330.152 556.705C329.801 556.596 329.419 556.542 329.007 556.542C328.448 556.542 327.95 556.638 327.512 556.831C327.078 557.023 326.712 557.307 326.414 557.683C326.116 558.055 325.888 558.516 325.729 559.065C325.574 559.615 325.496 560.245 325.496 560.955ZM346.472 554.023C347.326 554.023 348.094 554.126 348.777 554.331C349.462 554.536 350.044 554.83 350.522 555.215C351.003 555.6 351.373 556.07 351.63 556.626C351.888 557.178 352.017 557.802 352.017 558.497H349.196C349.196 558.178 349.129 557.889 348.995 557.631C348.865 557.374 348.679 557.155 348.437 556.975C348.195 556.795 347.904 556.657 347.566 556.561C347.228 556.464 346.851 556.416 346.435 556.416C346.205 556.416 345.979 556.432 345.755 556.463C345.532 556.494 345.321 556.54 345.122 556.603C344.924 556.665 344.74 556.742 344.573 556.835C344.405 556.928 344.259 557.037 344.135 557.161C344.014 557.285 343.92 557.425 343.851 557.58C343.783 557.735 343.749 557.906 343.749 558.092C343.749 558.356 343.812 558.572 343.94 558.739C344.07 558.904 344.261 559.039 344.512 559.144C344.767 559.25 345.08 559.337 345.453 559.405C345.825 559.473 346.255 559.543 346.742 559.615L347.287 559.694C347.566 559.734 347.853 559.779 348.148 559.829C348.443 559.875 348.738 559.933 349.033 560.001C349.327 560.069 349.616 560.151 349.899 560.248C350.184 560.344 350.454 560.46 350.709 560.597C350.963 560.733 351.197 560.895 351.411 561.081C351.626 561.264 351.81 561.478 351.965 561.723C352.124 561.969 352.246 562.248 352.333 562.561C352.42 562.875 352.464 563.229 352.464 563.623C352.464 564.321 352.324 564.937 352.045 565.471C351.768 566.002 351.374 566.447 350.862 566.807C350.353 567.164 349.737 567.434 349.014 567.617C348.291 567.8 347.484 567.892 346.593 567.892C345.634 567.892 344.784 567.788 344.042 567.58C343.3 567.372 342.675 567.071 342.166 566.677C341.66 566.282 341.275 565.801 341.012 565.233C340.748 564.662 340.616 564.015 340.616 563.292H343.437C343.437 563.637 343.508 563.945 343.651 564.219C343.797 564.492 344.005 564.723 344.275 564.912C344.548 565.102 344.879 565.247 345.266 565.35C345.654 565.449 346.09 565.499 346.575 565.499C346.987 565.499 347.374 565.462 347.734 565.387C348.097 565.313 348.412 565.199 348.679 565.047C348.949 564.895 349.161 564.706 349.317 564.479C349.472 564.253 349.549 563.987 349.549 563.683C349.549 563.392 349.484 563.157 349.354 562.98C349.223 562.803 349.033 562.661 348.781 562.552C348.533 562.443 348.229 562.358 347.869 562.296C347.512 562.231 347.105 562.166 346.649 562.1L345.946 561.998C345.58 561.945 345.2 561.888 344.806 561.826C344.411 561.761 344.025 561.674 343.646 561.565C343.268 561.456 342.908 561.318 342.566 561.151C342.225 560.983 341.926 560.769 341.668 560.508C341.41 560.248 341.206 559.934 341.053 559.568C340.904 559.202 340.83 558.766 340.83 558.26C340.83 557.797 340.895 557.372 341.026 556.984C341.156 556.596 341.341 556.246 341.579 555.932C341.822 555.619 342.112 555.344 342.45 555.108C342.791 554.869 343.172 554.669 343.591 554.508C344.01 554.346 344.461 554.225 344.945 554.145C345.433 554.064 345.942 554.023 346.472 554.023ZM356.156 560.955C356.156 561.666 356.234 562.296 356.389 562.845C356.547 563.395 356.775 563.857 357.073 564.233C357.371 564.605 357.737 564.887 358.172 565.08C358.609 565.272 359.107 565.368 359.666 565.368C360.563 565.368 361.281 565.109 361.821 564.591C362.361 564.073 362.72 563.295 362.897 562.259H365.82C365.737 562.842 365.603 563.387 365.42 563.893C365.24 564.399 365.013 564.861 364.74 565.28C364.47 565.696 364.158 566.067 363.805 566.393C363.451 566.715 363.06 566.988 362.631 567.212C362.203 567.432 361.739 567.6 361.24 567.715C360.743 567.833 360.217 567.892 359.661 567.892C359.028 567.892 358.429 567.817 357.864 567.668C357.3 567.519 356.777 567.305 356.296 567.026C355.818 566.743 355.386 566.399 355.001 565.992C354.62 565.586 354.295 565.126 354.028 564.614C353.762 564.099 353.555 563.534 353.409 562.92C353.267 562.305 353.195 561.65 353.195 560.955C353.195 560.257 353.267 559.602 353.409 558.991C353.555 558.376 353.762 557.813 354.028 557.301C354.295 556.786 354.62 556.325 355.001 555.918C355.386 555.512 355.818 555.169 356.296 554.889C356.777 554.607 357.3 554.391 357.864 554.242C358.429 554.093 359.028 554.019 359.661 554.019C360.217 554.019 360.743 554.078 361.24 554.196C361.739 554.311 362.203 554.48 362.631 554.703C363.06 554.924 363.451 555.197 363.805 555.522C364.158 555.845 364.47 556.216 364.74 556.635C365.013 557.051 365.24 557.512 365.42 558.018C365.603 558.524 365.737 559.068 365.82 559.652H362.897C362.72 558.618 362.36 557.842 361.817 557.324C361.274 556.803 360.557 556.542 359.666 556.542C359.107 556.542 358.609 556.638 358.172 556.831C357.737 557.023 357.371 557.307 357.073 557.683C356.775 558.055 356.547 558.516 356.389 559.065C356.234 559.615 356.156 560.245 356.156 560.955ZM378.48 567.612H375.538V562.231H369.97V567.612H367.028V554.298H369.97V559.708H375.538V554.298H378.48V567.612ZM379.618 560.955C379.618 560.257 379.689 559.602 379.832 558.991C379.978 558.376 380.184 557.813 380.451 557.301C380.718 556.786 381.044 556.325 381.429 555.918C381.813 555.512 382.245 555.169 382.723 554.889C383.201 554.607 383.722 554.391 384.287 554.242C384.855 554.093 385.455 554.019 386.089 554.019C386.722 554.019 387.321 554.093 387.885 554.242C388.453 554.391 388.976 554.607 389.454 554.889C389.935 555.169 390.367 555.512 390.748 555.918C391.133 556.325 391.459 556.786 391.726 557.301C391.996 557.813 392.202 558.376 392.345 558.991C392.491 559.605 392.564 560.26 392.564 560.955C392.564 561.65 392.491 562.305 392.345 562.92C392.202 563.534 391.996 564.099 391.726 564.614C391.459 565.126 391.133 565.586 390.748 565.992C390.367 566.399 389.935 566.743 389.454 567.026C388.976 567.305 388.453 567.519 387.885 567.668C387.321 567.817 386.722 567.892 386.089 567.892C385.455 567.892 384.855 567.817 384.287 567.668C383.722 567.519 383.201 567.305 382.723 567.026C382.245 566.743 381.813 566.399 381.429 565.992C381.044 565.586 380.718 565.126 380.451 564.614C380.184 564.099 379.978 563.534 379.832 562.92C379.689 562.305 379.618 561.65 379.618 560.955ZM382.578 560.955C382.578 561.666 382.656 562.296 382.811 562.845C382.969 563.395 383.198 563.857 383.496 564.233C383.793 564.605 384.16 564.887 384.594 565.08C385.032 565.272 385.53 565.368 386.089 565.368C386.647 565.368 387.144 565.272 387.578 565.08C388.016 564.887 388.384 564.605 388.682 564.233C388.983 563.857 389.211 563.395 389.366 562.845C389.524 562.296 389.603 561.666 389.603 560.955C389.603 560.245 389.524 559.615 389.366 559.065C389.211 558.516 388.983 558.055 388.682 557.683C388.384 557.307 388.016 557.023 387.578 556.831C387.144 556.638 386.647 556.542 386.089 556.542C385.53 556.542 385.032 556.638 384.594 556.831C384.16 557.023 383.793 557.307 383.496 557.683C383.198 558.055 382.969 558.516 382.811 559.065C382.656 559.615 382.578 560.245 382.578 560.955ZM393.565 560.955C393.565 560.257 393.637 559.602 393.779 558.991C393.925 558.376 394.132 557.813 394.399 557.301C394.666 556.786 394.991 556.325 395.376 555.918C395.761 555.512 396.192 555.169 396.67 554.889C397.148 554.607 397.67 554.391 398.235 554.242C398.803 554.093 399.403 554.019 400.036 554.019C400.669 554.019 401.268 554.093 401.833 554.242C402.401 554.391 402.924 554.607 403.402 554.889C403.883 555.169 404.314 555.512 404.696 555.918C405.081 556.325 405.407 556.786 405.674 557.301C405.944 557.813 406.15 558.376 406.293 558.991C406.439 559.605 406.512 560.26 406.512 560.955C406.512 561.65 406.439 562.305 406.293 562.92C406.15 563.534 405.944 564.099 405.674 564.614C405.407 565.126 405.081 565.586 404.696 565.992C404.314 566.399 403.883 566.743 403.402 567.026C402.924 567.305 402.401 567.519 401.833 567.668C401.268 567.817 400.669 567.892 400.036 567.892C399.403 567.892 398.803 567.817 398.235 567.668C397.67 567.519 397.148 567.305 396.67 567.026C396.192 566.743 395.761 566.399 395.376 565.992C394.991 565.586 394.666 565.126 394.399 564.614C394.132 564.099 393.925 563.534 393.779 562.92C393.637 562.305 393.565 561.65 393.565 560.955ZM396.526 560.955C396.526 561.666 396.604 562.296 396.759 562.845C396.917 563.395 397.145 563.857 397.443 564.233C397.741 564.605 398.107 564.887 398.542 565.08C398.979 565.272 399.478 565.368 400.036 565.368C400.595 565.368 401.091 565.272 401.526 565.08C401.963 564.887 402.331 564.605 402.629 564.233C402.93 563.857 403.158 563.395 403.314 562.845C403.472 562.296 403.551 561.666 403.551 560.955C403.551 560.245 403.472 559.615 403.314 559.065C403.158 558.516 402.93 558.055 402.629 557.683C402.331 557.307 401.963 557.023 401.526 556.831C401.091 556.638 400.595 556.542 400.036 556.542C399.478 556.542 398.979 556.638 398.542 556.831C398.107 557.023 397.741 557.307 397.443 557.683C397.145 558.055 396.917 558.516 396.759 559.065C396.604 559.615 396.526 560.245 396.526 560.955ZM410.595 554.298V565.108H416.647V567.612H407.653V554.298H410.595ZM428.589 554.298C429.275 554.298 429.898 554.377 430.456 554.536C431.015 554.691 431.491 554.914 431.885 555.206C432.283 555.498 432.588 555.851 432.802 556.267C433.017 556.683 433.124 557.152 433.124 557.673C433.124 558.089 433.055 558.474 432.919 558.828C432.782 559.178 432.591 559.487 432.346 559.754C432.104 560.018 431.816 560.234 431.48 560.401C431.145 560.569 430.779 560.676 430.382 560.722C430.863 560.766 431.305 560.878 431.708 561.058C432.112 561.238 432.46 561.472 432.751 561.761C433.046 562.049 433.276 562.386 433.44 562.771C433.605 563.153 433.687 563.572 433.687 564.028C433.687 564.577 433.566 565.072 433.324 565.513C433.085 565.953 432.748 566.331 432.314 566.644C431.879 566.954 431.359 567.193 430.754 567.361C430.149 567.529 429.482 567.612 428.752 567.612H421.928V554.298H428.589ZM428.287 559.833C428.575 559.833 428.838 559.796 429.074 559.722C429.313 559.647 429.516 559.538 429.683 559.396C429.851 559.253 429.98 559.081 430.07 558.879C430.163 558.674 430.209 558.444 430.209 558.19C430.209 557.942 430.164 557.723 430.074 557.534C429.988 557.341 429.862 557.18 429.697 557.049C429.533 556.919 429.331 556.821 429.092 556.756C428.853 556.688 428.583 556.654 428.282 556.654H424.87V559.833H428.287ZM428.543 565.257C429.278 565.257 429.829 565.125 430.196 564.861C430.562 564.594 430.745 564.18 430.745 563.618C430.745 563.059 430.562 562.648 430.196 562.384C429.829 562.118 429.28 561.984 428.548 561.984H424.87V565.257H428.543ZM434.245 560.955C434.245 560.257 434.316 559.602 434.459 558.991C434.605 558.376 434.811 557.813 435.078 557.301C435.345 556.786 435.671 556.325 436.056 555.918C436.44 555.512 436.872 555.169 437.35 554.889C437.828 554.607 438.349 554.391 438.914 554.242C439.482 554.093 440.082 554.019 440.716 554.019C441.349 554.019 441.948 554.093 442.512 554.242C443.08 554.391 443.603 554.607 444.081 554.889C444.562 555.169 444.994 555.512 445.375 555.918C445.76 556.325 446.086 556.786 446.353 557.301C446.623 557.813 446.829 558.376 446.972 558.991C447.118 559.605 447.191 560.26 447.191 560.955C447.191 561.65 447.118 562.305 446.972 562.92C446.829 563.534 446.623 564.099 446.353 564.614C446.086 565.126 445.76 565.586 445.375 565.992C444.994 566.399 444.562 566.743 444.081 567.026C443.603 567.305 443.08 567.519 442.512 567.668C441.948 567.817 441.349 567.892 440.716 567.892C440.082 567.892 439.482 567.817 438.914 567.668C438.349 567.519 437.828 567.305 437.35 567.026C436.872 566.743 436.44 566.399 436.056 565.992C435.671 565.586 435.345 565.126 435.078 564.614C434.811 564.099 434.605 563.534 434.459 562.92C434.316 562.305 434.245 561.65 434.245 560.955ZM437.205 560.955C437.205 561.666 437.283 562.296 437.438 562.845C437.596 563.395 437.825 563.857 438.123 564.233C438.42 564.605 438.787 564.887 439.221 565.08C439.659 565.272 440.157 565.368 440.716 565.368C441.274 565.368 441.771 565.272 442.205 565.08C442.643 564.887 443.011 564.605 443.309 564.233C443.61 563.857 443.838 563.395 443.993 562.845C444.151 562.296 444.23 561.666 444.23 560.955C444.23 560.245 444.151 559.615 443.993 559.065C443.838 558.516 443.61 558.055 443.309 557.683C443.011 557.307 442.643 557.023 442.205 556.831C441.771 556.638 441.274 556.542 440.716 556.542C440.157 556.542 439.659 556.638 439.221 556.831C438.787 557.023 438.42 557.307 438.123 557.683C437.825 558.055 437.596 558.516 437.438 559.065C437.283 559.615 437.205 560.245 437.205 560.955ZM451.153 560.955C451.153 561.672 451.229 562.308 451.381 562.864C451.533 563.419 451.755 563.887 452.047 564.265C452.342 564.644 452.703 564.931 453.132 565.126C453.56 565.322 454.052 565.42 454.607 565.42C455.101 565.42 455.559 565.35 455.981 565.21C456.406 565.067 456.775 564.867 457.089 564.61C457.405 564.352 457.658 564.043 457.847 563.683C458.037 563.323 458.145 562.923 458.173 562.482H454.463V560.49H460.971V567.612H458.215V564.302C458.038 564.852 457.801 565.348 457.503 565.792C457.208 566.236 456.862 566.613 456.465 566.923C456.071 567.234 455.632 567.473 455.147 567.64C454.666 567.808 454.15 567.892 453.597 567.892C453.076 567.892 452.579 567.816 452.107 567.664C451.639 567.511 451.204 567.294 450.804 567.012C450.404 566.726 450.042 566.379 449.719 565.969C449.4 565.559 449.127 565.098 448.9 564.586C448.673 564.071 448.498 563.509 448.374 562.901C448.253 562.29 448.192 561.641 448.192 560.955C448.192 560.257 448.264 559.602 448.406 558.991C448.552 558.376 448.759 557.813 449.026 557.301C449.293 556.786 449.617 556.325 449.999 555.918C450.383 555.512 450.815 555.169 451.293 554.889C451.774 554.607 452.297 554.391 452.862 554.242C453.426 554.093 454.025 554.019 454.659 554.019C455.183 554.019 455.686 554.072 456.167 554.177C456.651 554.283 457.106 554.436 457.531 554.638C457.959 554.84 458.353 555.088 458.713 555.383C459.076 555.675 459.399 556.008 459.682 556.384C459.967 556.759 460.208 557.175 460.403 557.631C460.599 558.084 460.743 558.572 460.836 559.093H457.913C457.816 558.674 457.669 558.306 457.47 557.99C457.275 557.67 457.037 557.403 456.758 557.189C456.479 556.975 456.162 556.814 455.808 556.705C455.458 556.596 455.076 556.542 454.663 556.542C454.105 556.542 453.606 556.638 453.169 556.831C452.734 557.023 452.368 557.307 452.07 557.683C451.772 558.055 451.544 558.516 451.386 559.065C451.231 559.615 451.153 560.245 451.153 560.955ZM462.122 560.955C462.122 560.257 462.193 559.602 462.336 558.991C462.482 558.376 462.688 557.813 462.955 557.301C463.222 556.786 463.548 556.325 463.933 555.918C464.318 555.512 464.749 555.169 465.227 554.889C465.705 554.607 466.226 554.391 466.791 554.242C467.359 554.093 467.96 554.019 468.593 554.019C469.226 554.019 469.825 554.093 470.39 554.242C470.958 554.391 471.481 554.607 471.958 554.889C472.44 555.169 472.871 555.512 473.253 555.918C473.638 556.325 473.963 556.786 474.23 557.301C474.5 557.813 474.707 558.376 474.849 558.991C474.995 559.605 475.068 560.26 475.068 560.955C475.068 561.65 474.995 562.305 474.849 562.92C474.707 563.534 474.5 564.099 474.23 564.614C473.963 565.126 473.638 565.586 473.253 565.992C472.871 566.399 472.44 566.743 471.958 567.026C471.481 567.305 470.958 567.519 470.39 567.668C469.825 567.817 469.226 567.892 468.593 567.892C467.96 567.892 467.359 567.817 466.791 567.668C466.226 567.519 465.705 567.305 465.227 567.026C464.749 566.743 464.318 566.399 463.933 565.992C463.548 565.586 463.222 565.126 462.955 564.614C462.688 564.099 462.482 563.534 462.336 562.92C462.193 562.305 462.122 561.65 462.122 560.955ZM465.083 560.955C465.083 561.666 465.16 562.296 465.315 562.845C465.474 563.395 465.702 563.857 466 564.233C466.298 564.605 466.664 564.887 467.098 565.08C467.536 565.272 468.034 565.368 468.593 565.368C469.151 565.368 469.648 565.272 470.082 565.08C470.52 564.887 470.888 564.605 471.186 564.233C471.487 563.857 471.715 563.395 471.87 562.845C472.028 562.296 472.107 561.666 472.107 560.955C472.107 560.245 472.028 559.615 471.87 559.065C471.715 558.516 471.487 558.055 471.186 557.683C470.888 557.307 470.52 557.023 470.082 556.831C469.648 556.638 469.151 556.542 468.593 556.542C468.034 556.542 467.536 556.638 467.098 556.831C466.664 557.023 466.298 557.307 466 557.683C465.702 558.055 465.474 558.516 465.315 559.065C465.16 559.615 465.083 560.245 465.083 560.955ZM476.209 567.612V554.294H482.796C483.544 554.294 484.215 554.388 484.808 554.577C485.403 554.767 485.908 555.037 486.321 555.387C486.736 555.735 487.054 556.157 487.275 556.654C487.495 557.15 487.605 557.706 487.605 558.32C487.605 558.857 487.518 559.346 487.345 559.787C487.171 560.224 486.923 560.601 486.6 560.918C486.28 561.231 485.892 561.478 485.436 561.658C484.983 561.835 484.475 561.933 483.914 561.951C484.444 561.989 484.912 562.184 485.315 562.538C485.722 562.889 486.071 563.392 486.362 564.046L487.964 567.612H484.7L483.085 564.056C482.967 563.792 482.848 563.575 482.727 563.404C482.606 563.23 482.469 563.092 482.317 562.99C482.165 562.887 481.99 562.816 481.791 562.775C481.595 562.735 481.36 562.715 481.083 562.715H479.151V567.612H476.209ZM482.457 560.341C482.804 560.341 483.115 560.3 483.388 560.22C483.661 560.136 483.892 560.016 484.081 559.861C484.271 559.703 484.415 559.511 484.514 559.284C484.614 559.054 484.663 558.794 484.663 558.502C484.663 557.928 484.472 557.489 484.091 557.184C483.709 556.877 483.163 556.724 482.452 556.724H479.151V560.341H482.457Z" fill="white"/>
<path d="M258.427 175.289L274.713 195.846C289.028 213.914 313.686 220.129 334.855 211.004L287.998 151.861L258.427 175.289Z" fill="#224499"/>
<path d="M301.532 169.565L288.645 152.357C274.56 135.233 250.783 129.607 230.519 138.604L228.602 139.455L276.601 197.651L301.532 169.565Z" fill="#224499"/>
<path d="M385.635 175.292L369.348 195.848C355.033 213.917 330.375 220.131 309.207 211.006L356.063 151.863L385.635 175.292Z" fill="#224499"/>
<path d="M342.529 169.566L355.416 152.357C369.501 135.234 393.278 129.608 413.543 138.605L415.46 139.456L367.46 197.652L342.529 169.566Z" fill="#224499"/>
<path d="M423.908 210.374L397.892 207.06C375.025 204.146 353.048 216.94 344.29 238.263L419.14 247.799L423.908 210.374Z" fill="#224499"/>
<path d="M397.084 244.598L418.329 247.895C440.371 250.293 461.306 237.695 469.508 217.096L470.284 215.147L395.279 207.086L397.084 244.598Z" fill="#224499"/>
<path d="M332.943 299.3L330.219 273.215C327.825 250.288 341.113 228.607 362.63 220.335L370.467 295.382L332.943 299.3Z" fill="#224499"/>
<path d="M367.768 273.255L370.582 294.57C372.481 316.66 359.411 337.304 338.631 345.037L336.665 345.768L330.307 270.6L367.768 273.255Z" fill="#224499"/>
<path d="M222.168 212.561L248.184 209.246C271.051 206.332 293.028 219.126 301.786 240.449L226.936 249.985L222.168 212.561Z" fill="#224499"/>
<path d="M248.992 246.784L227.747 250.081C205.705 252.479 184.77 239.881 176.568 219.282L175.793 217.333L250.798 209.272L248.992 246.784Z" fill="#224499"/>
<path d="M313.131 301.479L315.855 275.395C318.249 252.468 304.961 230.787 283.444 222.514L275.608 297.561L313.131 301.479Z" fill="#224499"/>
<path d="M278.307 275.438L275.493 296.752C273.594 318.843 286.664 339.487 307.444 347.219L309.41 347.951L315.768 272.782L278.307 275.438Z" fill="#224499"/>
<circle cx="396.246" cy="270.443" r="14.2608" fill="#EBBA38"/>
<circle cx="319.847" cy="154.753" r="14.2608" fill="#EBBA38"/>
<circle cx="254.361" cy="270.443" r="14.2608" fill="#EBBA38"/>
<path d="M322.663 0L242.784 29.9553L322.663 69.8946L360.708 50.872L325.017 39.9599C324.282 40.3123 323.478 40.4961 322.663 40.4979C321.211 40.4979 319.819 39.9213 318.793 38.8949C317.766 37.8685 317.19 36.4764 317.19 35.0248C317.19 33.5732 317.766 32.1811 318.793 31.1547C319.819 30.1283 321.211 29.5516 322.663 29.5516L321.758 32.4941L328.099 34.445L328.101 34.4641L337.459 37.3256L390.735 53.7173V57.8721C389.998 58.3735 389.395 59.0471 388.978 59.8347C388.56 60.6222 388.342 61.4997 388.341 62.3909C388.342 63.3026 388.57 64.1996 389.006 65.0004C389.442 65.8013 390.071 66.4806 390.835 66.9767C388.344 76.3923 388.341 97.755 388.341 106.176C393.814 109.732 393.814 109.862 399.287 106.176C399.287 97.7561 399.284 76.3974 396.793 66.9798C397.559 66.4832 398.187 65.8033 398.623 65.0018C399.058 64.2004 399.287 63.3027 399.287 62.3906C399.287 61.4983 399.069 60.6197 398.651 59.8311C398.234 59.0425 397.63 58.3679 396.893 57.866V49.1705L376.599 42.9267L402.542 29.9553L322.663 0ZM276.012 54.5229L271.523 81.4577C280.477 82.6286 291.187 87.8329 301.034 93.9868C306.633 97.4869 311.878 101.329 316.138 105.056C318.742 107.334 320.919 109.52 322.663 111.671C324.406 109.52 326.584 107.334 329.188 105.056C333.447 101.329 338.692 97.4869 344.292 93.9868C354.138 87.8329 364.849 82.6286 373.803 81.4577L369.313 54.5229H367.175L322.663 76.7792L278.15 54.5229H276.012Z" fill="#2D3F70"/>
<path d="M247.697 358.816C248.071 357.637 249.74 357.637 250.113 358.816L253.733 370.252C253.857 370.645 254.165 370.953 254.558 371.078L265.994 374.697C267.174 375.071 267.174 376.74 265.994 377.113L254.558 380.733C254.165 380.857 253.857 381.165 253.733 381.558L250.113 392.994C249.74 394.174 248.071 394.174 247.697 392.994L244.078 381.558C243.953 381.165 243.645 380.857 243.252 380.733L231.816 377.113C230.637 376.74 230.637 375.071 231.816 374.697L243.252 371.078C243.645 370.953 243.953 370.645 244.078 370.252L247.697 358.816Z" fill="#224499"/>
<path d="M271.527 361.995H283.838C284.82 361.995 285.745 362.092 286.612 362.286C287.484 362.474 288.288 362.746 289.021 363.104C289.761 363.462 290.424 363.898 291.012 364.413C291.6 364.923 292.098 365.499 292.504 366.141C292.916 366.784 293.231 367.487 293.449 368.251C293.668 369.008 293.777 369.815 293.777 370.669C293.777 371.524 293.668 372.333 293.449 373.097C293.231 373.855 292.916 374.558 292.504 375.207C292.091 375.849 291.591 376.428 291.003 376.943C290.415 377.459 289.752 377.898 289.012 378.262C288.279 378.619 287.475 378.895 286.603 379.089C285.736 379.277 284.814 379.371 283.838 379.371H277.273V388H271.527V361.995ZM283.529 374.625C284.232 374.625 284.86 374.534 285.411 374.352C285.969 374.17 286.442 373.909 286.83 373.57C287.218 373.23 287.515 372.818 287.721 372.333C287.927 371.842 288.03 371.288 288.03 370.669C288.03 370.057 287.927 369.508 287.721 369.023C287.521 368.539 287.227 368.126 286.839 367.787C286.457 367.447 285.99 367.19 285.439 367.014C284.887 366.832 284.266 366.741 283.575 366.741H277.273V374.625H283.529ZM301.461 388H295.715V361.995H301.461V388ZM303.718 374.997C303.718 373.633 303.851 372.354 304.118 371.16C304.385 369.96 304.767 368.86 305.264 367.86C305.761 366.853 306.364 365.953 307.073 365.159C307.788 364.365 308.589 363.695 309.474 363.15C310.365 362.598 311.335 362.177 312.383 361.886C313.432 361.595 314.544 361.449 315.72 361.449C316.896 361.449 318.009 361.595 319.057 361.886C320.106 362.177 321.073 362.598 321.958 363.15C322.849 363.695 323.649 364.365 324.358 365.159C325.074 365.953 325.68 366.853 326.177 367.86C326.674 368.86 327.056 369.96 327.323 371.16C327.589 372.361 327.723 373.64 327.723 374.997C327.723 376.355 327.589 377.634 327.323 378.835C327.056 380.035 326.674 381.138 326.177 382.144C325.68 383.144 325.074 384.042 324.358 384.836C323.649 385.63 322.849 386.303 321.958 386.854C321.073 387.4 320.106 387.818 319.057 388.109C318.009 388.4 316.896 388.546 315.72 388.546C314.544 388.546 313.432 388.4 312.383 388.109C311.335 387.818 310.365 387.4 309.474 386.854C308.589 386.303 307.788 385.63 307.073 384.836C306.364 384.042 305.761 383.144 305.264 382.144C304.767 381.138 304.385 380.035 304.118 378.835C303.851 377.634 303.718 376.355 303.718 374.997ZM309.501 374.997C309.501 376.386 309.637 377.616 309.91 378.689C310.189 379.762 310.592 380.665 311.119 381.399C311.653 382.126 312.304 382.678 313.074 383.054C313.85 383.429 314.732 383.617 315.72 383.617C316.708 383.617 317.587 383.429 318.357 383.054C319.133 382.678 319.785 382.126 320.312 381.399C320.846 380.665 321.249 379.762 321.521 378.689C321.8 377.616 321.94 376.386 321.94 374.997C321.94 373.609 321.8 372.379 321.521 371.306C321.249 370.233 320.846 369.333 320.312 368.605C319.785 367.872 319.133 367.317 318.357 366.941C317.587 366.565 316.708 366.378 315.72 366.378C314.732 366.378 313.85 366.565 313.074 366.941C312.304 367.317 311.653 367.872 311.119 368.605C310.592 369.333 310.189 370.233 309.91 371.306C309.637 372.379 309.501 373.609 309.501 374.997ZM353.768 388H345.612L335.465 367.132V388H329.955V361.995H338.647L348.258 381.626V361.995H353.768V388ZM367.058 361.458C368.725 361.458 370.225 361.658 371.559 362.058C372.898 362.459 374.035 363.034 374.968 363.786C375.908 364.538 376.629 365.456 377.132 366.541C377.636 367.62 377.887 368.839 377.887 370.196H372.377C372.377 369.572 372.247 369.008 371.986 368.505C371.731 368.002 371.368 367.575 370.895 367.223C370.422 366.872 369.855 366.602 369.195 366.414C368.534 366.226 367.797 366.132 366.985 366.132C366.536 366.132 366.094 366.162 365.657 366.223C365.221 366.284 364.809 366.374 364.421 366.496C364.033 366.617 363.675 366.768 363.348 366.95C363.021 367.132 362.736 367.344 362.493 367.587C362.257 367.829 362.072 368.102 361.939 368.405C361.805 368.708 361.739 369.042 361.739 369.405C361.739 369.921 361.863 370.342 362.111 370.669C362.366 370.991 362.739 371.254 363.23 371.46C363.727 371.666 364.339 371.836 365.066 371.97C365.794 372.103 366.633 372.239 367.585 372.379L368.649 372.533C369.195 372.612 369.755 372.7 370.331 372.797C370.907 372.888 371.483 373 372.059 373.133C372.635 373.267 373.198 373.427 373.75 373.615C374.308 373.803 374.835 374.031 375.332 374.297C375.829 374.564 376.287 374.879 376.705 375.243C377.123 375.601 377.484 376.019 377.787 376.498C378.096 376.977 378.336 377.522 378.505 378.134C378.675 378.747 378.76 379.438 378.76 380.208C378.76 381.571 378.487 382.775 377.942 383.817C377.402 384.854 376.632 385.724 375.632 386.427C374.638 387.124 373.435 387.651 372.022 388.009C370.61 388.367 369.034 388.546 367.294 388.546C365.421 388.546 363.76 388.342 362.311 387.936C360.863 387.53 359.641 386.942 358.647 386.172C357.659 385.403 356.907 384.463 356.392 383.354C355.877 382.238 355.619 380.974 355.619 379.562H361.129C361.129 380.235 361.269 380.838 361.548 381.371C361.832 381.905 362.239 382.356 362.766 382.726C363.299 383.096 363.945 383.381 364.703 383.581C365.46 383.775 366.312 383.872 367.258 383.872C368.064 383.872 368.819 383.799 369.522 383.654C370.231 383.508 370.846 383.287 371.368 382.99C371.895 382.693 372.31 382.323 372.613 381.881C372.916 381.438 373.068 380.92 373.068 380.326C373.068 379.756 372.941 379.298 372.686 378.953C372.432 378.607 372.059 378.328 371.568 378.116C371.083 377.904 370.489 377.737 369.786 377.616C369.088 377.489 368.294 377.362 367.403 377.234L366.03 377.034C365.315 376.931 364.572 376.819 363.803 376.698C363.033 376.57 362.278 376.401 361.538 376.189C360.799 375.976 360.096 375.707 359.429 375.379C358.762 375.052 358.177 374.634 357.674 374.125C357.171 373.615 356.771 373.003 356.474 372.288C356.183 371.572 356.037 370.721 356.037 369.733C356.037 368.83 356.165 367.999 356.419 367.241C356.674 366.484 357.035 365.799 357.501 365.186C357.974 364.574 358.541 364.038 359.202 363.577C359.868 363.11 360.611 362.719 361.429 362.404C362.248 362.089 363.13 361.852 364.075 361.695C365.027 361.537 366.021 361.458 367.058 361.458Z" fill="#224499"/>
<path d="M399.508 358.816C399.881 357.637 401.55 357.637 401.924 358.816L405.543 370.252C405.668 370.645 405.976 370.953 406.369 371.078L417.805 374.697C418.984 375.071 418.984 376.74 417.805 377.113L406.369 380.733C405.976 380.857 405.668 381.165 405.543 381.558L401.924 392.994C401.55 394.174 399.881 394.174 399.508 392.994L395.888 381.558C395.764 381.165 395.456 380.857 395.063 380.733L383.627 377.113C382.447 376.74 382.447 375.071 383.627 374.697L395.063 371.078C395.456 370.953 395.764 370.645 395.888 370.252L399.508 358.816Z" fill="#224499"/>
</svg>
